<?xml version="1.0" encoding="UTF-8" standalone="no"?>
<!-- Created with Inkscape (http://www.inkscape.org/) -->

<svg
   width="81.285004mm"
   height="110mm"
   viewBox="0 0 81.285004 110"
   version="1.1"
   id="svg87055"
   inkscape:version="1.2.1 (9c6d41e410, 2022-07-14)"
   sodipodi:docname="CTP-Logo-Pin.svg"
   inkscape:export-filename="CTP-Logo-NoText.png"
   inkscape:export-xdpi="84.666664"
   inkscape:export-ydpi="84.666664"
   xmlns:inkscape="http://www.inkscape.org/namespaces/inkscape"
   xmlns:sodipodi="http://sodipodi.sourceforge.net/DTD/sodipodi-0.dtd"
   xmlns="http://www.w3.org/2000/svg"
   xmlns:svg="http://www.w3.org/2000/svg">
  <sodipodi:namedview
     id="namedview87057"
     pagecolor="#ffffff"
     bordercolor="#000000"
     borderopacity="0.25"
     inkscape:showpageshadow="2"
     inkscape:pageopacity="1"
     inkscape:pagecheckerboard="0"
     inkscape:deskcolor="#d1d1d1"
     inkscape:document-units="mm"
     showgrid="false"
     inkscape:zoom="1.1212722"
     inkscape:cx="185.05766"
     inkscape:cy="210.02929"
     inkscape:window-width="1920"
     inkscape:window-height="991"
     inkscape:window-x="-9"
     inkscape:window-y="-9"
     inkscape:window-maximized="1"
     inkscape:current-layer="layer1" />
  <defs
     id="defs87052" />
  <g
     inkscape:label="Layer 1"
     inkscape:groupmode="layer"
     id="layer1">
    <circle
       style="fill:#ffffff;fill-opacity:1;stroke-width:0.999996;stroke-linecap:round"
       id="path15182"
       cx="40.642502"
       cy="40.758854"
       r="32.5" />
    <g
       id="g11341"
       transform="translate(-4.9999074,-4.9999082)">
      <path
         id="path6699"
         style="fill:#00a61d;stroke-width:0.285714;stroke-linecap:round"
         d="M 45.642409,9.9999064 A 35.642382,35.642382 0 0 0 9.9999064,45.642409 35.642382,35.642382 0 0 0 37.676154,80.381903 L 45.612189,109.99991 53.60508,80.382415 A 35.642382,35.642382 0 0 0 81.284912,45.642409 35.642382,35.642382 0 0 0 45.642409,9.9999064 Z m -0.270954,8.8031916 c 0.860494,-0.0091 1.721021,0.02248 2.577906,0.09629 1.550572,0.1329 3.094691,0.403686 4.597,0.804155 0.808721,0.215849 1.609144,0.468753 2.393002,0.758568 0.577077,0.21351 1.146286,0.445976 1.705628,0.697106 1.494272,0.669863 2.926988,1.478326 4.272777,2.409904 1.280556,0.88607 2.48448,1.885233 3.592063,2.978446 1.175958,1.161034 2.244552,2.433909 3.185887,3.790797 0.547039,0.788641 1.051921,1.606491 1.512016,2.44883 0.541791,0.992306 1.022795,2.023966 1.434674,3.07679 0.326628,0.836527 0.611065,1.687315 0.85179,2.552295 0.163127,0.584463 0.307224,1.177861 0.43076,1.771702 0.159262,0.767135 0.28566,1.540571 0.377492,2.317708 0.07226,0.608616 0.124124,1.226106 0.153661,1.838288 0.04666,0.968026 0.04,1.940719 -0.01844,2.906738 -0.05698,0.944522 -0.164222,1.883461 -0.320637,2.817616 -0.256746,1.535707 -0.647169,3.050077 -1.166281,4.517096 -0.605363,1.714805 -1.387469,3.371779 -2.328976,4.929419 -0.808118,1.337852 -1.736622,2.608935 -2.764347,3.785163 -0.575697,0.659201 -1.185381,1.291302 -1.821385,1.890532 -1.351298,1.272015 -2.83554,2.40303 -4.420291,3.368744 -1.917293,1.170301 -3.979894,2.096112 -6.127456,2.752053 -1.166175,0.356577 -2.361553,0.632614 -3.562356,0.826692 -0.688761,0.110869 -1.381325,0.19549 -2.074924,0.253027 -1.211857,0.101525 -2.43614,0.119221 -3.650966,0.05327 -1.307912,-0.07117 -2.610617,-0.237755 -3.893748,-0.498372 -0.720144,-0.146041 -1.436243,-0.322481 -2.140486,-0.526541 -1.005349,-0.292032 -1.992459,-0.640653 -2.957447,-1.047963 -0.798834,-0.33684 -1.587151,-0.716654 -2.34844,-1.129402 -1.596501,-0.864624 -3.106978,-1.89324 -4.496096,-3.061423 -1.331319,-1.118283 -2.55295,-2.369883 -3.640722,-3.72421 -1.416124,-1.761322 -2.606018,-3.701646 -3.536746,-5.759696 -0.645971,-1.427008 -1.16447,-2.911828 -1.551455,-4.427463 -0.199028,-0.782553 -0.364656,-1.573003 -0.492225,-2.368927 -0.207356,-1.287321 -0.305305,-2.586815 -0.344199,-3.890164 -0.0054,-1.239896 0.06026,-2.480204 0.213588,-3.709356 0.282726,-2.253484 0.85372,-4.472227 1.692823,-6.581266 0.192815,-0.485103 0.402164,-0.970086 0.623348,-1.442869 0.331865,-0.710687 0.697055,-1.408242 1.089451,-2.08568 0.505004,-0.870469 1.058801,-1.714616 1.657481,-2.522077 0.772356,-1.042865 1.621872,-2.030961 2.535392,-2.950787 0.856701,-0.86229 1.77173,-1.665967 2.736688,-2.403245 1.103064,-0.843073 2.270857,-1.598334 3.490648,-2.260854 2.211467,-1.201216 4.591152,-2.087481 7.046856,-2.626052 1.519215,-0.334185 3.071318,-0.535861 4.626195,-0.602349 0.286696,-0.01214 0.573666,-0.0195 0.860497,-0.02254 z" />
      <path
         id="path5989-3-3"
         style="fill:#000000;fill-opacity:1;stroke:none;stroke-width:0.112353;stroke-opacity:1"
         class="st0"
         d="m 51.545174,24.022823 c -0.04886,0.0018 -0.08768,0.007 -0.115755,0.01499 0,0 -1.117071,2.012017 -1.362191,2.453597 l -3.745508,6.747909 c -0.278358,0.501443 1.028674,2.02306 1.992644,2.636531 1.300547,0.827385 3.680395,0.960665 3.680395,0.960665 0.900804,0.562493 0.795024,1.491106 0.896586,3.25975 0.01346,0.233912 0.0056,0.483295 -0.0155,0.74104 0.566842,0.327253 1.133668,0.65372 1.701188,0.979785 0.0926,0.03724 0.161454,0.124399 0.177767,0.222725 0.01899,0.08939 -0.01695,0.183289 -0.08423,0.243396 -0.329424,0.276245 -0.631091,0.589603 -0.869198,0.948779 -0.358057,0.59098 -0.696253,1.193655 -1.043347,1.791106 l -0.870748,-0.502295 c -0.10968,0.27964 -0.221791,0.558463 -0.342615,0.840259 0.254563,0.14695 0.509205,0.29387 0.763778,0.440799 -0.374266,0.647595 -0.74761,1.295751 -1.122412,1.943034 -0.108093,0.192315 -0.230052,0.378848 -0.307475,0.586528 -0.09191,0.257318 -0.127318,0.529895 -0.17725,0.79685 L 49.91995,48.677132 c -0.154093,0.255559 -0.308737,0.511163 -0.469738,0.768429 0.617571,0.35658 1.235479,0.712213 1.853116,1.068668 0.192647,0.120243 0.403793,0.211885 0.580844,0.356051 0.357527,0.286515 0.481554,0.818866 0.301273,1.237651 -0.187028,0.353338 -0.393335,0.696282 -0.591695,1.043347 -0.122189,0.197282 -0.215691,0.414365 -0.370003,0.590145 -0.304286,0.350284 -0.850626,0.453198 -1.264523,0.247013 -0.874556,-0.502818 -1.748245,-1.007396 -2.622062,-1.511536 -0.194807,0.243606 -0.390792,0.479607 -0.588078,0.702283 0.752998,0.434554 1.506257,0.868289 2.259294,1.302763 0.195133,0.12173 0.40925,0.21454 0.588078,0.361218 0.353277,0.286018 0.475455,0.812898 0.299206,1.229382 -0.187926,0.356613 -0.395861,0.702176 -0.595829,1.052133 -0.122234,0.196827 -0.215388,0.413897 -0.37052,0.588594 -0.304495,0.348207 -0.84865,0.450116 -1.261422,0.244946 -1.366165,-0.784781 -2.730322,-1.573405 -4.09484,-2.361096 -0.902252,0.496943 -1.492097,0.734272 -2.20555,0.38499 0,0 -1.37211,-1.949693 -2.762105,-2.615861 -1.030474,-0.493634 -3.012841,-0.798104 -3.291272,-0.296623 l -3.745508,6.747908 c -0.245122,0.441584 -1.362191,2.454114 -1.362191,2.454114 0.128626,0.449319 2.433591,2.843713 3.931543,3.675228 2.962396,1.644418 8.313103,-0.568014 11.956376,-3.720703 2.837144,-2.455184 6.335092,-6.32761 9.007719,-11.142472 0.658735,-1.18672 1.252507,-2.426578 1.783354,-3.676779 -0.01,-0.0057 -0.01997,-0.01184 -0.02997,-0.01757 -0.03083,-0.01903 -0.06768,-0.04769 -0.10542,-0.02739 -0.05666,0.03883 -0.09607,0.09844 -0.132808,0.155546 -0.303171,0.504054 -0.592469,1.016238 -0.886768,1.525488 -0.02657,0.04607 -0.0581,0.09697 -0.08527,0.137976 -0.210053,0.315483 -0.489347,0.584581 -0.813387,0.781348 -0.626542,0.387087 -1.422708,0.479703 -2.123384,0.256315 -0.259878,-0.08862 -0.521106,-0.197659 -0.728121,-0.382922 -0.30407,-0.268662 -0.415182,-0.722558 -0.294556,-1.106393 0.03424,-0.121627 0.107826,-0.225849 0.167948,-0.33538 0.819115,-1.426131 1.641959,-2.849973 2.46445,-4.274157 0.05399,-0.09385 0.107105,-0.188558 0.163297,-0.28112 0.367393,-0.626623 0.949217,-1.121804 1.618506,-1.395264 0.768872,-0.319609 1.656904,-0.331981 2.437577,-0.04496 0.0281,0.0099 0.05943,0.02272 0.08578,0.03256 0.01252,0.005 0.02491,0.0107 0.03772,0.01602 0.526044,-1.781597 0.906853,-3.462416 1.133264,-4.901509 C 60.54286,32.786078 59.590454,27.074909 56.62806,25.43049 55.223731,24.650946 52.278073,23.995759 51.545166,24.022824 Z m -2.391585,15.316378 c -0.211135,-0.0087 -0.428033,0.09282 -0.537435,0.276986 -0.04596,0.06886 -0.08717,0.141019 -0.128158,0.212906 -0.23023,0.406385 -0.473782,0.805112 -0.690397,1.219047 -0.09271,0.211608 -0.03453,0.473457 0.12299,0.638721 0.09166,0.08968 0.209139,0.144842 0.317293,0.211357 1.438115,0.829317 2.875663,1.660372 4.313432,2.490287 0.290225,-0.499966 0.571535,-1.005365 0.8816,-1.493449 0.196995,-0.282082 0.430149,-0.537758 0.681612,-0.772046 -1.585573,-0.912151 -3.168055,-1.828894 -4.755782,-2.7373 -0.06477,-0.02838 -0.134777,-0.04361 -0.205155,-0.04651 z m -3.620451,3.204972 c -0.213262,-0.0068 -0.431546,0.09897 -0.538985,0.286804 -0.03749,0.05707 -0.07179,0.116307 -0.10542,0.1757 -0.240297,0.426343 -0.498234,0.84276 -0.721403,1.278475 -0.08469,0.252394 0.01988,0.559841 0.252181,0.695565 0.198031,0.129401 0.409979,0.235416 0.612366,0.357601 1.766105,1.022218 3.533729,2.041579 5.300968,3.061828 0.06242,-0.235865 0.160797,-0.461906 0.289388,-0.669209 0.333901,-0.583826 0.671672,-1.165092 1.007691,-1.747697 -1.962495,-1.13212 -3.924288,-2.266298 -5.889563,-3.393592 -0.06561,-0.02828 -0.136136,-0.04321 -0.207223,-0.04547 z m 11.733651,0.131258 c -0.05029,0.0012 -0.10036,0.0035 -0.149862,0.0072 -0.09337,0.0071 -0.185116,0.01839 -0.274919,0.03411 -0.104893,0.01825 -0.199879,0.03996 -0.302823,0.06925 -0.600968,0.173644 -1.142499,0.546369 -1.51722,1.047481 -0.08501,0.113863 -0.167974,0.246014 -0.239779,0.374138 -0.8868,1.537528 -1.77662,3.073084 -2.657202,4.614188 -0.110465,0.241203 -0.03257,0.556318 0.184485,0.711585 0.132642,0.100554 0.291976,0.166575 0.449068,0.223759 0.08733,0.03101 0.176992,0.05543 0.267684,0.07441 0.04408,0.0087 0.09864,0.01852 0.147278,0.0248 0.220986,0.02985 0.451874,0.02265 0.667659,-0.01757 0.252311,-0.04679 0.496491,-0.138793 0.715719,-0.272334 0.06464,-0.03949 0.133477,-0.08778 0.195337,-0.136943 0.104573,-0.08188 0.204078,-0.175087 0.289388,-0.272335 0.07349,-0.08394 0.137613,-0.169253 0.19792,-0.264066 0.09727,-0.155397 0.184858,-0.316526 0.27802,-0.47439 0.238911,-0.413737 0.472277,-0.831261 0.728637,-1.23455 0.105811,-0.152112 0.269702,-0.277466 0.45992,-0.289905 0.143938,-0.01217 0.282299,0.04745 0.400493,0.12454 0.337459,0.193377 0.671759,0.391799 1.000972,0.59893 -0.102426,0.181312 -0.206888,0.367123 -0.297656,0.551388 -0.219246,0.444186 -0.380078,0.923302 -0.433048,1.419035 -0.06431,0.56843 0.03103,1.142512 0.19482,1.686718 0.120941,0.401099 0.279412,0.796607 0.448551,1.182357 0.13205,0.297048 0.266676,0.593379 0.429948,0.874882 0.195703,0.343622 0.407994,0.679175 0.569991,1.040764 0.04104,0.08321 0.06655,0.177418 0.04806,0.270267 -0.02529,0.154254 -0.137874,0.288235 -0.28267,0.345199 -0.33328,0.161627 -0.666074,0.325072 -1.000972,0.483174 -0.117133,0.07146 -0.287341,0.0052 -0.330213,-0.124023 -0.461991,-0.948985 -0.952255,-1.884525 -1.390613,-2.844788 -0.179956,-0.396747 -0.345761,-0.800752 -0.472322,-1.218013 -0.918813,1.714067 -2.010878,3.330158 -3.18947,4.875155 -0.751618,0.990722 -1.535656,1.955928 -2.318204,2.922302 0.977514,0.495422 1.977572,0.943342 2.94969,1.45004 0.366707,0.18553 0.751328,0.3382 1.146184,0.45372 0.392968,0.114939 0.805548,0.194796 1.213362,0.232027 0.554028,0.0516 1.115514,0.02313 1.660881,-0.08785 0.328481,-0.06626 0.651571,-0.159989 0.976684,-0.246497 0.336965,-0.09087 0.674055,-0.182027 1.011825,-0.269751 0.05431,-0.01582 0.111195,-0.0307 0.167432,-0.01447 0.09378,0.02347 0.170729,0.08634 0.255281,0.130224 l 4.516004,2.596741 5.934521,-9.909472 -4.767151,-3.156914 c -0.245176,-0.899259 -0.475738,-1.803959 -0.735872,-2.698543 -0.198116,-0.577713 -0.519131,-1.112039 -0.93276,-1.561145 -0.0431,-0.04645 -0.09287,-0.0988 -0.14056,-0.145728 -0.07302,-0.07244 -0.149154,-0.143014 -0.224792,-0.208256 -0.09945,-0.08611 -0.212063,-0.174986 -0.319361,-0.251147 -0.08714,-0.06239 -0.172585,-0.117905 -0.2651,-0.173633 -0.314426,-0.189391 -0.634829,-0.368011 -0.95188,-0.552938 -0.983545,-0.566662 -1.96498,-1.137107 -2.953824,-1.69447 -0.211506,-0.106913 -0.437609,-0.185299 -0.66921,-0.235128 -0.07377,-0.01543 -0.156026,-0.02999 -0.234094,-0.03979 -0.149988,-0.0197 -0.303379,-0.02747 -0.454236,-0.02377 z M 44.57609,47.278768 c -0.205918,-0.0105 -0.418694,0.08335 -0.532267,0.258382 -0.01615,0.02543 -0.03995,0.06095 -0.05788,0.09095 -0.02821,0.04576 -0.05485,0.09242 -0.08165,0.139009 -0.227901,0.403913 -0.471111,0.799201 -0.68523,1.210779 -0.0642,0.128652 -0.06181,0.283218 -0.01809,0.418062 0.04549,0.141691 0.145013,0.265261 0.276469,0.335897 0.227952,0.139534 0.463426,0.266078 0.693497,0.402043 1.937076,1.119913 3.874682,2.239256 5.815149,3.353283 0.09414,0.05134 0.183903,0.117672 0.292489,0.134359 0.225361,0.04146 0.477474,-0.0514 0.604614,-0.24598 0.140981,-0.210833 0.25258,-0.439156 0.384989,-0.655257 0.147941,-0.258207 0.303388,-0.515952 0.438217,-0.77928 0.05544,-0.09718 0.06213,-0.215136 0.04754,-0.324012 -0.02492,-0.175803 -0.128493,-0.341267 -0.284737,-0.428914 -0.217676,-0.139799 -0.449127,-0.256748 -0.669727,-0.391707 -2.007401,-1.158174 -4.014317,-2.317271 -6.023921,-3.471623 -0.06317,-0.02754 -0.130832,-0.04249 -0.199472,-0.04599 z m -0.963765,4.733044 c -0.21775,-0.01279 -0.444139,0.09313 -0.554488,0.284737 -0.03731,0.05711 -0.07118,0.115914 -0.104903,0.175184 -0.238091,0.421215 -0.491669,0.834474 -0.714685,1.264005 -0.06092,0.149954 -0.0433,0.324079 0.02429,0.468705 0.05168,0.110764 0.14065,0.201235 0.247013,0.26045 0.193273,0.123245 0.398563,0.226874 0.594796,0.345198 1.468529,0.850451 2.938777,1.697329 4.410066,2.542997 0.124543,0.07008 0.247703,0.14349 0.374138,0.209807 0.252245,0.09675 0.569807,9.63e-4 0.712101,-0.232544 0.0904,-0.133492 0.169645,-0.283229 0.250114,-0.426331 0.188084,-0.326801 0.385167,-0.648645 0.558105,-0.983919 0.05783,-0.09905 0.07081,-0.223686 0.05323,-0.337447 -0.02369,-0.154201 -0.104856,-0.301006 -0.233061,-0.392224 -0.113293,-0.07753 -0.233726,-0.144423 -0.35295,-0.21239 -0.243701,-0.135896 -0.483212,-0.279741 -0.725537,-0.418063 -1.414872,-0.817255 -2.829669,-1.633875 -4.247286,-2.446362 -0.06328,-0.03578 -0.125449,-0.07635 -0.198437,-0.08888 -0.0304,-0.0068 -0.06139,-0.01109 -0.0925,-0.01292 z" />
    </g>
  </g>
</svg>
